# xmcd
#
# Track frame offsets:
#	150
#	24048
#	41045
#	61913
#	89035
#	115578
#	134603
#	148840
#	169575
#
# Disc length: 2401 seconds
# Revision: 3
# Processed by: cddbd v1.5.2PL0 Copyright (c) Steve Scherf et al.
# Submitted via: dBpowerAMP V12.0
#
DISCID=78095f09
DTITLE=Rolf Wikström - Jävla måndag
DYEAR=1978
DGENRE=Blues
TTITLE0=Solidaritet
TTITLE1=Jävla måndag
TTITLE2=Saknaden Efter Dig
TTITLE3=Vad månen är vacker
TTITLE4=Iskalla Morgnar
TTITLE5=Du Kramar Musten Ur Mig Kvinna
TTITLE6=Nu förstår jag
TTITLE7=Ett Hus Vid Sergels Torg
TTITLE8=I Samma Band
EXTD=
EXTT0=
EXTT1=
EXTT2=
EXTT3=
EXTT4=
EXTT5=
EXTT6=
EXTT7=
EXTT8=
PLAYORDER=
